<?xml version="1.0" encoding="UTF-8"?>
<svg id="Layer_1" data-name="Layer 1" xmlns="http://www.w3.org/2000/svg" viewBox="0 0 4000 3000">
  <defs>
    <style>
      .cls-1, .cls-2 {
        stroke-width: 0px;
      }

      .cls-2 {
        fill: #fff;
      }
    </style>
  </defs>
  <rect class="cls-1" x="499" y="-501" width="3002" height="4002" transform="translate(3500 -500) rotate(90)"/>
  <g>
    <g>
      <polygon class="cls-2" points="1192.05 2345.5 1166.99 2300.39 1153.76 2300.39 1186.2 2355.94 1186.2 2397.84 1198.03 2397.84 1198.03 2355.8 1230.47 2300.39 1217.25 2300.39 1192.05 2345.5"/>
      <path class="cls-2" d="M1349.36,2313.41c-4.45-4.5-9.68-8.03-15.66-10.58-5.99-2.55-12.55-3.83-19.7-3.83s-13.6,1.28-19.63,3.83c-6.03,2.55-11.28,6.08-15.73,10.58-4.45,4.5-7.91,9.79-10.37,15.87-2.46,6.08-3.69,12.69-3.69,19.84s1.23,13.64,3.69,19.77c2.46,6.13,5.92,11.44,10.37,15.94,4.45,4.5,9.7,8.03,15.73,10.58,6.03,2.55,12.57,3.83,19.63,3.83s13.71-1.28,19.7-3.83c5.99-2.55,11.21-6.08,15.66-10.58,4.45-4.5,7.91-9.82,10.37-15.94,2.46-6.13,3.69-12.71,3.69-19.77s-1.23-13.76-3.69-19.84c-2.46-6.08-5.92-11.37-10.37-15.87ZM1348.18,2364.36c-1.81,4.69-4.39,8.75-7.73,12.18-3.34,3.43-7.26,6.1-11.76,8-4.5,1.9-9.4,2.86-14.69,2.86s-10.19-.95-14.69-2.86c-4.5-1.9-8.42-4.57-11.76-8-3.34-3.43-5.92-7.49-7.73-12.18-1.81-4.68-2.71-9.77-2.71-15.24s.91-10.56,2.71-15.25c1.81-4.68,4.39-8.75,7.73-12.18,3.34-3.43,7.26-6.1,11.76-8,4.5-1.9,9.4-2.86,14.69-2.86s10.19.95,14.69,2.86c4.5,1.9,8.42,4.57,11.76,8,3.34,3.43,5.92,7.5,7.73,12.18,1.81,4.69,2.71,9.77,2.71,15.25s-.91,10.56-2.71,15.24Z"/>
      <path class="cls-2" d="M1461.71,2365.82c0,4.45-.81,8.35-2.44,11.7-1.62,3.34-4.01,5.94-7.17,7.79-3.16,1.86-7.05,2.79-11.69,2.79s-8.54-.93-11.7-2.79c-3.16-1.85-5.55-4.45-7.17-7.79-1.62-3.34-2.44-7.24-2.44-11.7v-65.43h-11.83v65.43c0,4.83.77,9.28,2.3,13.36,1.53,4.09,3.76,7.61,6.68,10.58,2.92,2.97,6.43,5.29,10.51,6.96,4.08,1.67,8.63,2.51,13.64,2.51s9.56-.83,13.64-2.51c4.08-1.67,7.59-3.99,10.51-6.96,2.92-2.97,5.15-6.5,6.68-10.58,1.53-4.08,2.3-8.54,2.3-13.36v-65.43h-11.83v65.43Z"/>
      <polygon class="cls-2" points="1604.41 2300.39 1592.58 2300.39 1592.58 2397.84 1642.7 2397.84 1642.7 2386.71 1604.41 2386.71 1604.41 2300.39"/>
      <polygon class="cls-2" points="1689.61 2300.39 1683.07 2300.39 1683.07 2397.84 1689.61 2397.84 1694.9 2397.84 1738.76 2397.84 1738.76 2386.71 1694.9 2386.71 1694.9 2350.51 1735.97 2350.51 1735.97 2339.37 1694.9 2339.37 1694.9 2311.53 1738.76 2311.53 1738.76 2300.39 1694.9 2300.39 1689.61 2300.39"/>
      <path class="cls-2" d="M1777.04,2397.84h13.23l12.36-29.23h39.26l12.42,29.23h13.23l-45.25-102.33-45.25,102.33ZM1837.22,2357.47h-29.82l14.89-35.08,14.93,35.08Z"/>
      <path class="cls-2" d="M1971.46,2313.83c-4.32-4.32-9.44-7.63-15.38-9.95-5.94-2.32-12.48-3.48-19.63-3.48h-29.24v97.45h29.24c7.15,0,13.69-1.16,19.63-3.48,5.94-2.32,11.07-5.64,15.38-9.95,4.32-4.32,7.68-9.47,10.09-15.45,2.41-5.99,3.62-12.6,3.62-19.84s-1.21-13.85-3.62-19.84c-2.41-5.99-5.78-11.14-10.09-15.45ZM1970.69,2364.43c-1.76,4.55-4.27,8.42-7.52,11.63-3.25,3.2-7.15,5.66-11.69,7.38-4.55,1.72-9.56,2.58-15.04,2.58h-17.4v-73.79h17.4c5.48,0,10.49.86,15.04,2.58,4.55,1.72,8.45,4.18,11.69,7.38,3.25,3.2,5.75,7.08,7.52,11.63,1.76,4.55,2.64,9.65,2.64,15.31s-.88,10.77-2.64,15.31Z"/>
      <path class="cls-2" d="M2035.29,2384.62c-2.04,0-3.83.74-5.36,2.23-1.53,1.49-2.3,3.3-2.3,5.43s.77,3.83,2.3,5.36c1.53,1.53,3.32,2.3,5.36,2.3s3.94-.77,5.43-2.3c1.48-1.53,2.23-3.32,2.23-5.36s-.74-3.94-2.23-5.43c-1.49-1.48-3.3-2.23-5.43-2.23Z"/>
      <polygon class="cls-2" points="2251.49 2372.09 2222.54 2295.52 2194.14 2372.09 2168.24 2300.39 2155.02 2300.39 2193.3 2402.72 2222.54 2326.98 2251.77 2402.72 2290.06 2300.39 2276.83 2300.39 2251.49 2372.09"/>
      <polygon class="cls-2" points="2336.97 2300.39 2330.43 2300.39 2330.43 2397.84 2336.97 2397.84 2342.27 2397.84 2386.12 2397.84 2386.12 2386.71 2342.27 2386.71 2342.27 2350.51 2383.33 2350.51 2383.33 2339.37 2342.27 2339.37 2342.27 2311.53 2386.12 2311.53 2386.12 2300.39 2342.27 2300.39 2336.97 2300.39"/>
      <polygon class="cls-2" points="2516.29 2300.39 2504.45 2300.39 2504.45 2397.84 2554.57 2397.84 2554.57 2386.71 2516.29 2386.71 2516.29 2300.39"/>
      <rect class="cls-2" x="2594.95" y="2300.39" width="11.83" height="97.45"/>
      <polygon class="cls-2" points="2663.44 2300.39 2656.9 2300.39 2656.9 2397.84 2668.73 2397.84 2668.73 2350.51 2705.62 2350.51 2705.62 2339.37 2668.73 2339.37 2668.73 2311.53 2707.01 2311.53 2707.01 2300.39 2668.73 2300.39 2663.44 2300.39"/>
      <polygon class="cls-2" points="2740.43 2311.53 2765.49 2311.53 2765.49 2397.84 2777.32 2397.84 2777.32 2311.53 2802.38 2311.53 2802.38 2300.39 2740.43 2300.39 2740.43 2311.53"/>
      <path class="cls-2" d="M2844.01,2386.84c-1.48-1.48-3.3-2.23-5.43-2.23s-3.83.74-5.36,2.23c-1.53,1.49-2.3,3.3-2.3,5.43s.77,3.83,2.3,5.36,3.32,2.3,5.36,2.3,3.94-.77,5.43-2.3c1.48-1.53,2.23-3.32,2.23-5.36s-.74-3.94-2.23-5.43Z"/>
    </g>
    <g>
      <path class="cls-2" d="M806.57,2029.38l-72.72,202.53h42.59l13.33-38.54h80.55l13.33,38.54h42.88l-72.73-202.53h-47.23ZM800.77,2160.93l29.26-84.6,29.26,84.6h-58.53Z"/>
      <rect class="cls-2" x="936.37" y="2029.67" width="40.56" height="202.24"/>
      <polygon class="cls-2" points="1051.11 2231.91 1168.45 2231.91 1168.45 2198.88 1091.67 2198.88 1091.67 2145.28 1159.76 2145.28 1159.76 2113.12 1091.67 2113.12 1091.67 2062.41 1168.45 2062.41 1168.45 2029.38 1051.11 2029.38 1051.11 2231.91"/>
      <polygon class="cls-2" points="1298.25 2180.05 1233.93 2029.67 1187.86 2029.67 1187.86 2231.91 1228.43 2231.91 1228.43 2100.37 1282.9 2231.91 1313.61 2231.91 1367.79 2100.37 1367.79 2231.91 1408.36 2231.91 1408.36 2029.67 1362.58 2029.67 1298.25 2180.05"/>
      <path class="cls-2" d="M1545.4,2037.79c-11.01-5.41-24.34-8.11-39.98-8.11h-74.46v202.24h40.56v-77.65h33.9c16.61,0,30.37-2.9,41.29-8.69,10.91-5.79,18.93-13.42,24.05-22.89,5.12-9.46,7.68-19.6,7.68-30.42,0-11.97-2.75-22.69-8.26-32.16-5.5-9.46-13.76-16.9-24.77-22.31ZM1528.6,2113.84c-5.41,5.12-13.72,7.68-24.92,7.68h-32.16v-58.82h32.16c22.02,0,33.03,9.85,33.03,29.55,0,9.27-2.71,16.47-8.11,21.58Z"/>
      <path class="cls-2" d="M1735.9,2040.1c-15.74-8.88-33.18-13.33-52.3-13.33s-36.32,4.44-52.16,13.33c-15.84,8.89-28.39,21.2-37.66,36.94-9.27,15.74-13.91,33.46-13.91,53.17s4.64,37.72,13.91,53.46c9.27,15.75,21.82,28.06,37.66,36.94,15.84,8.89,33.22,13.33,52.16,13.33s36.31-4.44,52.15-13.33c15.84-8.88,28.35-21.2,37.52-36.94,9.17-15.74,13.76-33.56,13.76-53.46s-4.59-37.42-13.76-53.17c-9.18-15.74-21.63-28.06-37.38-36.94ZM1737.5,2165.85c-5.22,10.24-12.46,18.11-21.73,23.61-9.27,5.51-19.99,8.26-32.16,8.26s-22.94-2.75-32.31-8.26c-9.37-5.51-16.66-13.37-21.88-23.61-5.22-10.24-7.82-22.12-7.82-35.64s2.61-25.35,7.82-35.49c5.21-10.14,12.5-17.91,21.88-23.32,9.37-5.41,20.14-8.11,32.31-8.11s22.89,2.71,32.16,8.11c9.27,5.41,16.51,13.18,21.73,23.32s7.82,21.98,7.82,35.49-2.61,25.4-7.82,35.64Z"/>
      <polygon class="cls-2" points="1990.44 2185.84 1951.61 2029.67 1906.41 2029.67 1865.27 2186.71 1829.63 2029.67 1786.17 2029.67 1840.64 2232.2 1888.16 2231.91 1927.85 2087.91 1965.81 2231.91 2013.62 2231.91 2070.12 2029.67 2026.37 2029.67 1990.44 2185.84"/>
      <polygon class="cls-2" points="2079.09 2231.91 2196.44 2231.91 2196.44 2198.88 2119.66 2198.88 2119.66 2145.28 2187.75 2145.28 2187.75 2113.12 2119.66 2113.12 2119.66 2062.41 2196.44 2062.41 2196.44 2029.38 2079.09 2029.38 2079.09 2231.91"/>
      <path class="cls-2" d="M2353.19,2127.75c7.72-10.72,11.59-22.75,11.59-36.07,0-11.59-2.75-22.07-8.26-31.44-5.51-9.37-13.76-16.81-24.77-22.31-11.01-5.51-24.34-8.26-39.99-8.26h-75.91v202.24h40.56v-78.81h19.12l44.62,78.81h46.94l-48.39-82c15.26-4.06,26.75-11.45,34.48-22.17ZM2290.32,2122.68h-33.9v-59.4h33.9c11.01,0,19.22,2.56,24.63,7.68,5.41,5.12,8.11,12.31,8.11,21.58s-2.71,16.86-8.11,22.17c-5.41,5.31-13.62,7.97-24.63,7.97Z"/>
      <polygon class="cls-2" points="2384.19 2231.91 2501.54 2231.91 2501.54 2198.88 2424.75 2198.88 2424.75 2145.28 2492.84 2145.28 2492.84 2113.12 2424.75 2113.12 2424.75 2062.41 2501.54 2062.41 2501.54 2029.38 2384.19 2029.38 2384.19 2231.91"/>
      <path class="cls-2" d="M2647.71,2042.13c-16.13-8.3-34.82-12.46-56.07-12.46h-70.7v202.24h70.7c21.25,0,39.93-4.15,56.07-12.46,16.13-8.3,28.58-20.04,37.38-35.2,8.79-15.16,13.18-32.89,13.18-53.17s-4.4-38.1-13.18-53.46c-8.79-15.36-21.25-27.19-37.38-35.49ZM2639.45,2180.05c-11.59,11.59-28.01,17.38-49.26,17.38h-28.68v-133.57h28.68c21.25,0,37.67,5.94,49.26,17.82,11.59,11.88,17.38,28.35,17.38,49.4s-5.79,37.38-17.38,48.97Z"/>
      <polygon class="cls-2" points="2901.38 2029.67 2846.03 2190.48 2790.4 2029.67 2746.94 2029.67 2821.12 2231.91 2870.37 2231.91 2944.55 2029.67 2901.38 2029.67"/>
      <path class="cls-2" d="M3011.77,2029.38l-72.73,202.53h42.59l13.33-38.54h80.55l13.33,38.54h42.88l-72.72-202.53h-47.23ZM3005.97,2160.93l29.26-84.6,29.26,84.6h-58.53Z"/>
      <path class="cls-2" d="M3257.61,2160.49c-5.51-6.47-12.03-11.25-19.56-14.34-7.53-3.09-17.1-6.08-28.68-8.98-11.4-2.9-19.8-5.75-25.21-8.55-5.41-2.8-8.11-6.9-8.11-12.31,0-4.83,1.98-8.59,5.94-11.3,3.96-2.7,9.61-4.06,16.95-4.06,7.92,0,14.24,1.88,18.98,5.65,4.73,3.77,7.39,8.84,7.97,15.21h38.82c-1.16-16.22-7.44-29.12-18.83-38.68-11.4-9.56-26.66-14.34-45.78-14.34-12.94,0-24.19,2.13-33.75,6.37-9.56,4.25-16.91,10.05-22.02,17.38-5.12,7.34-7.68,15.46-7.68,24.34,0,10.82,2.75,19.41,8.26,25.79,5.5,6.37,12.07,11.11,19.7,14.2,7.63,3.09,17.43,6.08,29.41,8.98,11.59,3.09,20.04,5.94,25.35,8.55,5.31,2.61,7.97,6.52,7.97,11.73,0,4.83-2.17,8.79-6.52,11.88-4.35,3.09-10.39,4.64-18.11,4.64s-14.54-2.03-19.85-6.08c-5.31-4.06-8.36-9.17-9.13-15.36h-40.85c.58,9.85,3.91,18.83,10,26.95,6.08,8.11,14.34,14.54,24.77,19.27,10.43,4.73,22.21,7.1,35.35,7.1s23.9-2.08,33.47-6.23c9.56-4.15,16.9-9.9,22.02-17.24,5.12-7.34,7.68-15.65,7.68-24.92-.2-10.62-3.04-19.17-8.55-25.64Z"/>
    </g>
    <g>
      <path class="cls-2" d="M2593.09,1215.51c-11.61-5.16-17.13-15.61-16.78-28.09,3.4-5.84,8.93-7.78,13.48-11,29.26-20.74,28.42-57.57-1.76-76.54-7.62-4.79-15.5-9.17-23.15-13.92-12.99-8.06-25.18-17.29-34.81-29.17-16.38-20.23-26.89-42.09-22.58-69.77,4-25.65,3.44-51.75-2.89-77.18-13.66-54.88-38.35-103.29-84.26-138.55-19.3-14.82-40.62-26.3-63.33-35.06-7.01-2.7-12.98-6.02-17.08-12.81-10.73-17.74-26.28-30.66-43.56-41.63-26.02-16.54-54.74-25.94-84.75-31.98-46.22-9.31-92.91-9.82-139.57-5.84-50.75,4.32-100.01,15.47-146.25,37.82-4.01,1.94-8.21,3.46-12.24,5.14-20.02-10.6-38.23-22.55-53.08-39.17-4.49-5.03-9.3-9.8-14.28-14.36-9.02-8.27-19.56-10.89-31.31-7.04-9.09,2.98-17.95,6.62-27.08,9.45-9.03,2.8-18.15,6.19-27.5,3.27-4.42-4.75-4.84-10.66-7.22-15.69-2.17-4.57-3.8-9.47-6.51-13.68-8.61-13.38-19.44-15.82-33.18-7.79-7.87,4.6-14.13,11.09-20.27,17.71-5.31,5.72-10.05,12.18-17.84,14.97-3.25-4.76-2.01-13.1-11.29-13.03-6.93,6.4-6.67,16.09-9.94,25.11-8.43.96-16.72,2.14-25.06,2.78-9.11.7-14.64,5.6-16.82,14.04-1.79,6.92-2.69,14.08-3.99,21.15-1.63-.34-2.79-.41-3.8-.82-15.37-6.27-18.84-5.12-26.44,9.56-7.05,13.62-10.86,28.31-14.01,43.24-.88,4.18-.05,9.08-4.09,12.38-6.54-.36-11.12-5.18-16.86-7.35-15.59-5.91-29.13-1.56-37.69,12.82-4.96,8.34-7.72,17.53-7.96,27.27-.23,9.49-.05,18.99-.05,28.63-4.69,1.95-8.85,3.55-12.9,5.39-4.16,1.89-8,4.23-9.56,9.67-.77,10.09,9.78,18.96,4.96,30.62-4.51,4.95-11.34,6.41-17.4,9.21-19.77,9.13-23.28,16.14-18.65,37.18,1.66,7.56,5.91,14.77,3.31,24.06-15.53,12.48-37.27,19.98-44.41,41.96,1.16,2.32,1.9,3.82,2.67,5.31,2.99,5.77,10.79,6.14,13.69,12.1-1.36,6.17-6.99,8.57-10.94,12.35-6.14,5.9-11.8,12.09-15.34,19.94-4.91,10.89-3.38,16.17,6.08,23.17,4.73,3.5,11.42,4.39,15.86,11.49-6.51,6.06-13.23,11.24-18.61,17.56-10.94,12.83-10.6,34.85,8.8,39.68,1.07.27,2.08.88,3.04,1.45,10.04,5.97,10.83,13.26,2.53,21.72-3,3.06-8.32,3.99-9.02,11.03,10.31-1.22,16.45-7,20.28-15.28,4.1-8.85,2.97-17.44-3.15-25.37-4.05-5.24-11.13-7.94-12.84-15.05,1.75-6.43,7.74-7.97,12.15-11.18,7.32-5.32,14.54-10.74,18.82-19,5.44-10.44,3.9-17.8-4.98-25.4-4.58-3.92-10.78-5.87-15.06-11.69,6.91-6.44,13.87-12,19.71-18.55,10.27-11.54,10.54-19.16,2.82-32.03-1.9-3.17-6.15-5.29-4.82-10.3,1.16-.94,2.38-2.07,3.73-3.02,25.01-17.45,28.8-28.27,20.35-57.35-1.36-4.67-4.81-9.21-1.44-15.5,6.49-3.64,13.91-7.55,21.07-11.89,10.7-6.49,15.24-15.93,13.55-28.57-.58-4.32-3.21-8.57-1.15-13.25,3.8-2.04,7.5-4.47,13.61-2.83-9.04,14.11-12.05,28.93-5.94,44.2-5.59,6.44-10.54,11.8-15.11,17.46-16.85,20.9-18.43,40.92-4.82,63.92,4.29,7.25,8.88,14.43,14.18,20.96,6.41,7.88,7.8,15.68,3.43,24.95-2.62,5.57-4.6,11.52-6.2,17.48-5.31,19.79-4.8,38.86,7.03,56.7,3,4.53,7.35,8.67,7.52,15.4-3.04,6.38-8.65,11.17-14.19,15.81-8.19,6.86-17.01,12.97-25.19,19.83-13.4,11.23-11.83,25.95,3.74,33.75,4.93,2.47,10.72,3.18,16.06,4.89,3.49,1.11,8.06.82,9.06,6.26-.91,1.21-1.66,2.84-2.92,3.76-3.63,2.64-7.47,4.99-11.23,7.45-4.23,2.76-8.89,5.04-12.62,8.36-8.91,7.93-8.03,17.48,2.27,23.44,5.3,3.06,11.44,4.64,17.01,7.27,2.75,1.29,7.02,1.37,6.76,6.14-.52.25-1,.56-1.54.72-2.94.91-5.32-.79-7.98-1.54-13.18-3.68-18.85-.11-21.34,13.35-.49,2.67.54,5.62-2.22,8.97-.84.64-2.54,2.12-4.42,3.31-5.62,3.57-9.66,8.11-8.05,15.25,1.74,7.72,8.01,10.39,14.86,11.9,8.95,1.98,16.51-1.49,23.56-7.1,15.72,4.23,29.02-.88,40.83-10.68,7.45-6.18,7.26-11.51-.02-18.14-5.39-4.91-12.68-7.34-17.98-13.9,2.09-17.16-13.7-19.47-26.34-26.69,6.55-2.82,11.08-4.88,15.68-6.74,7.44-3,14-7.24,19.08-13.51,8.26-10.18,7.41-20.87-2.21-29.96-4.18-3.95-9.26-6.29-14.5-8.43-2.75-1.12-7.08-.26-7.23-5.83,3.22-2.53,6.63-5.45,10.28-8,3.99-2.78,7.11-7.47,13.81-6.39,2.62,3.68,5.73,7.65,8.41,11.89,4.17,6.6,11.36,11.64,12.41,19.78,1.24,9.65-7.74,14.4-12.21,21.27-16.74,25.77-12.35,50.37,12.57,68.73,2.27,1.67,4.52,3.35,6.72,5.11,6.11,4.89,12.19,9.82,14.67,17.33-2.71,6.36-8.53,7.97-13.08,11.05-6.54,4.44-13.08,8.87-17.96,15.2-10.83,14.04-8.06,28.33,7.4,36.71,4.91,2.66,10.37,4.33,15.66,6.22,4.32,1.54,8.65,2.88,9.66,8.72-.64,5.15-5.13,8.04-8.46,11.74-4.13,4.6-8.67,8.93-12.2,13.96-11.98,17.08-6.58,31.56,13.52,36.95,5.8,1.55,11.67,2.86,17.21,4.21.84,5.58-3,7.77-5.32,10.77-3.78,4.89-8.25,9.36-11.32,14.65-9.74,16.82-4.04,29.63,14.62,33.88,6.5,1.48,13.58,1.41,18.37,6.93,6.08,7.28-3.21,12.56-3.73,20.45,15.07-13.49,14.19-25.82-.79-34.62-6.65-3.9-15.21-4.02-21.01-10.01.88-8.54,8.03-10.81,13.1-14.71,8.19-6.3,15.48-13.07,17.76-23.76,2.99-14.05-1.11-21.26-14.94-25.47-6.1-1.85-12.3-3.36-20.24-5.51,7.83-6.51,14.16-11.12,19.72-16.52,14.73-14.31,14.16-33.82-1.47-46.99-5.95-5.01-12.8-8.97-20.29-14.13,6.48-3.12,12.32-5.92,18.7-8.99,5.89,6.68,9.94,14.3,18.21,17.77,8.04,3.37,17.31,3.85,23.83,8.52.56,4.29-1.5,5.56-3.19,6.94-4.37,3.55-8.92,6.88-11.8,11.91-7.29,12.71-3.66,22.56,10.21,27.59,4.74,1.72,9.53,3.32,14.2,5.22,1.48.6,2.65,1.99,3.72,2.83,0,2.95-.16,5.17.05,7.35.2,2.09-4.16,4.69.54,6.43,8.87-12.15,7.81-18.15-3.54-25.93-4.86-3.33-12.3-2.71-14.96-9.58,2.65-5.69,8.29-7.38,12.94-10.33,8.34-5.28,15.61-11.36,15.12-22.56-.52-11.78-8.22-17.94-17.86-22.44-4.08-1.9-8.34-3.39-12.48-5.16-3.53-1.5-7.73-2.28-8.47-7.34.83-5.4,5.51-8.06,8.95-11.62,7.04-7.28,14.01-14.63,21.23-21.74,17.15-16.89,12.69-35.59-.69-49.17-7.47-7.59-16.21-13.91-24.17-21.05-4.01-3.59-9.71-5.92-10.82-13.45,11.43-6.52,24.84-5.14,36.92-8.71,12.54-3.71,23.58-9.69,32.41-20.15,3.3,3.85,5.57,6.31,7.63,8.95,2.4,3.09,5.08,6.1,4.71,11.67-2.79,5.51-6.26,11.94-9.36,18.54-7.26,15.44-11.55,31.56-11.86,48.79-.17,9.59,2.4,17.61,9.21,24.42,2.83,2.83,6.75,5.36,6.45,10.76-27.93-10.16-46.33-2.36-51.78,22.16,12.26,15.54,35.84,9.49,50.45,23.22-8.21,9.29-21.16,12.33-23.15,24.9,1.84,7.78,8.15,12.07,12.86,17.56-2.75,3.9-10.02,3.6-9.18,10.78,4.85,5.64,10.78,6.81,17.38,3.33,3.5-1.35-.04-7.41,5.45-7.29,3.24,1.61,5.22,4.04,4.83,8.02-1.53,5.32-6.86,7.1-10.28,10.7-7.81,8.22-7.59,16.77.38,25.14,4.61,4.84,10.55,7.7,16.42,10.58-3.34,9.86-15.31,11.03-17.29,21.08-1.81,9.19-1.48,18.6-5.23,27.33,9.9,2.4,11.71-7.26,18.7-9.51,9.23,10.34,25.48,1.48,34.73,12.07,3.04,10.48-6.65,12.4-12.53,18.28,13.06-2.93,19.4-7.8,19.33-14.75-.08-8.49-6.29-12.63-12.84-16.34-4.74-2.68-10.94-2.18-15.78-6.83,5.71-3.85,11.06-6.81,15.63-10.68,12.02-10.2,12.23-20.94.77-31.47-3.68-3.38-7.96-6.12-12.37-9.45,4.93-6.35,12.68-7.79,18.08-12.57,8.97-7.93,9.72-15.23,1.97-24.73-1.3-1.59-4.31-1.5-4.43-5.46,7.88-10.26,16.52-21.19,19.06-36.55,8.59,5.82,19.27,6.47,22.69,16.68-3.83,8.41-11.22,12.16-16.53,17.87-12.8,13.79-10.78,28.33,5.54,37.55,5.22,2.95,10.81,5.23,16.99,8.17-3.96,8.09-11.01,12.24-15.82,18.24-14.15,17.63-10.95,30.57,9.62,39.38,5.93,2.54,13.29,2.78,17.15,8.72-1.53,9.09-10.96,10.91-14.76,17.71,1.55.29,2.91,1,3.55.59,5.1-3.23,10.07-6.68,15.69-10.47,4.55,8.54,10.65,15.57,16.84,23.18-19.75,9.67-34.83,22.27-34.8,44.91.03,24.23,18.98,33.5,38.67,42.29-.02.02-.04.03-.06.05-8.2,7.68-16.63,12.13-24.87,16.85-12.5,7.16-22.43,16.93-29.55,29.44-7.45,13.07-7.02,25.81,2.38,37.81,4.47,5.71,9.25,11.18,14.07,16.98-5.35,9.34-14.52,12.84-22.6,17.59-7.27,4.27-15.19,7.5-21.58,13.14-10.89,9.62-9.59,21.89,3.2,28.77,3.91,2.1,8.44,3.05,12.68,4.55,3.57,1.27,7.96,1.46,8.79,6.36-.95,3.85-4.07,5.31-7.03,6.85-6.99,3.63-14.41,6.58-20.94,10.89-14.81,9.78-14.02,22.17,1.16,31.61,5.17,3.21,11.9,3.39,16.16,8.22-1.33,3.17-3.97,4.16-6.4,5.37-6.08,3.01-12.06,6.2-16.6,11.39-8.04,9.19-7.06,17.47,3.2,23.91,5.21,3.27,11.02,5.59,16.55,8.35,4.38,2.19,7.22,5.28,6.47,9.27-2.84,9.76-13.58,6.62-18.26,14.57,11.88-.76,20.75-4.47,25.28-14.71,3.02-6.84-1.75-13.46-13.55-20.72-1.91-1.18-4.08-1.95-5.93-3.22-2.61-1.79-6.36-2.93-5.24-7.44,2.78-4.17,7.59-4.7,11.69-6.16,6.38-2.28,12.83-4.29,18.12-8.72,11.51-9.63,10.52-21.26-2.48-28.4-4.64-2.55-9.5-4.69-16.46-8.09,17.28-7.46,32.91-12.32,44.76-25.26,6.27,8.24,14.47,11.82,23.05,14.49,5.69,1.77,8.23,5.27,8.24,10.94,1.79.65,3.93-1.84,6.25,1.34-12.16,23.34-23.46,47.7-32.07,72.44-6.75,1.97-13.51,1.82-14.6,10.13-.98,7.45,7.17,5.01,9.24,8.67-.66,8.6-5.09,16.2-4.69,25.65,7.11-2.51,10.41-7.93,14.39-12.44,16.02-18.18,32.43-35.98,51.46-51.1,59.19-47.03,125.36-66.42,200.63-51.56,39.94,7.89,78.29,20.66,115.86,35.81,76.73,30.93,153.18,62.54,229.75,93.86,18.74,7.66,37.44,15.43,56.26,22.87,4.98,1.97,10.09,5.59,16.23,1.58.32-1.34,1.09-2.95,1.03-4.52-3.01-69.97-31.07-127.03-87.74-169.11-12.68-9.42-25.08-19.12-36.16-30.37-29.01-29.46-39.94-64.13-31.26-105.13,13.97-65.95,36.06-128.91,67.35-188.62,2.78-5.3,4.51-11.68,10.57-14.46,5.57-.12,9.88,2.9,14.59,4.6,27.68,10.01,55.97,17.17,85.56,17.96,26.08.7,48.56-8.12,67.38-26.16,11.06-10.6,17.44-23.19,17.01-38.98-.21-7.84-.08-15.86,1.33-23.54,2.76-15.01,11.45-25.57,26.86-28.73,9.44-1.94,13.19-7.94,14.26-16.37,1.36-10.74-2.49-19.8-9.77-27.7-3.37-3.66-8.61-5.41-10.63-10.29,1.12-2.69,3.6-2.33,5.55-2.89,16.88-4.88,21.26-18.34,23.56-33.57,2.19-14.51-3.8-22.97-17.09-28.87ZM1524.22,1059.2c-19.35-19.23-24.14-25.32,1.56-49.29,8.88,13.97,12.21,29.54,16.43,44.72-6.08,5.09-12.23,4.49-17.99,4.57ZM1530.4,787.85c-2.16-6.67-4.17-12.09-2.2-18.17,7.21-1.46,11.94,2.5,18.11,6.28-4.13,5.64-9.63,8.33-15.91,11.89ZM1604.11,1234.92c-5.37,9.83-9.84,17.41-18.49,23.42-7.93-8.51-7.8-21.03-15.82-29.06-7.73-7.73-17.27-12.15-26.73-16.52.88-6.27,4.2-9.66,10.12-12.36,17.68,9.09,35.82,18.41,50.93,34.53ZM1566.59,1128.52c-8.63-6.14-13.11-14.24-18-23.7,14.09-2.85,26-8.19,37.05-16.8,7.6,9.54,14.03,18.22,16.92,29.46-12.56,3.84-24.7,5.96-35.96,11.04ZM1641,706.72c-8.39-11.32-8.56-23.05-6.9-35.01q9.73-4.33,20.85-3.28c-4.54,12.45-9.05,24.83-13.95,38.29ZM1682.47,1440.86q.98-11.83,14.04-12.42-6.24,8.55-14.04,12.42ZM1690.63,1342.69c4.45-9.04,10.23-10.16,15.07-12.64-2.43,5.45-5.45,10.13-15.07,12.64ZM1702.77,650.21c6.55-8.12,13.2-12.07,21.37-16.91,4.82,11.48,8.91,20.98,10.79,32.97-13.78-1.75-20.48-12.45-32.17-16.06ZM1755.75,1368.09c2.15-6.58,8.5-7.52,12.57-10.99,15.16-12.9,17.18-29.1,4.22-44.25-6.05-7.07-13.54-12.9-20.56-19.45,5.55-8.8,15.72-10.21,21.93-19.43,5.28,11.66,8.19,22.34,14.97,31.07,6.94,8.94,16.2,15.06,26.52,21.2-29.39,14.04-38.01,34.56-32.97,58.32-7.51-7.52-16.38-12.95-26.69-16.47ZM1775.68,1451.65c-9.09-5.02-18.04-9.96-26.39-14.56-1.77-5.01,1.03-7.19,3.64-9.2,3.09-2.39,6.46-4.41,9.68-6.64,12.48-8.63,20.26-19.87,20.05-35.48,2.35,13.62,10.41,23.74,21.11,32.25-19.24,11.82-20.5,13.32-28.1,33.64ZM1819.64,1614.47c8.91,12.29,12.79,23.26,16.41,34.68-6.95,6.45-14.54,9.24-26.05,11.33,6.88-15.24,10.13-28.61,9.64-46.01ZM1773.01,1750.34c-5.92-12.78-14.4-19.77-25.3-24.85,2.72-6.49,8.73-7.45,13.21-10.19,4.24-2.59,8.79-4.67,14.1-7.45,8.13,10.3,22.35,8.09,33.4,16.51-11.13,9.36-25.51,12.68-35.41,25.98ZM1813.75,1773.84c-4.54-9.65-12.77-13.04-22.6-17.37,9.9-4.11,17.4-7.49,25.1-10.34,7.99-2.97,11.69-11.27,19.09-14.87-4.14,15.1-14.54,26.98-21.58,42.58ZM1991.96,1430.36c-3.21,20.15-9.86,39.23-17.61,57.99-16.36,39.62-36.93,77.06-58.96,113.74-24.9,41.47-52,81.6-75.44,123.97-.92,1.66-2.59,2.89-4.02,4.26,3.06-13.51-4.46-21.59-14.87-28.36-4.64-3.02-10.51-3.95-15.04-9.13,2-3.56,5.6-4.55,9.2-5.54,9.74-2.67,19.66-4.81,28.9-9.1,20-9.28,25.06-22.75,15.56-42.34-5.41-11.17-12.54-21.31-19.62-31.48-3.81-5.47-8.15-10.75-9.19-17.72,2.98-4.73,7.97-3.59,12.21-4.2,10.12-1.46,19.86-3.86,28.54-9.58,22.99-15.16,26.34-44.12,7.24-63.94-3.38-3.51-7.26-6.54-11.03-9.91,37.05-22.71,38.95-46.41,5.3-77.04,8.36-4.65,16.53-9.18,21.82-17.11,5.58-8.36,7.03-17.64,6.94-27.35-.09-9.79-2.84-18.75-8.02-27.14-5.1-8.25-12.94-13.64-22.31-21.12,21.43-6.3,34.07-20.05,41.44-37.52.17-.04.31-.03.48-.06,5.79-1.07,8.06,2.63,10.8,4.92,14.71,12.27,27.92,26.06,41,40.05,25.09,26.82,32.32,58.31,26.68,93.71Z"/>
      <path class="cls-2" d="M2367.36,905.23c-6.94,0-13.34,2.29-18.53,6.11l-160.02-102.89-.9-38.65c13.15-3.72,22.8-15.78,22.8-30.12,0-2.09-.21-4.13-.6-6.1l100.55-41.88c-5.61-4.47-10.94-7.98-15.88-10.93l-91.43,38.76c-5.75-6.83-14.34-11.17-23.97-11.17-11.49,0-21.51,6.21-26.96,15.44l-210.89-49.15c-4.89,1.97-6.96,3.04-11.81,5.08-3.32,1.4-8.13,3.92-11.47,5.27-.27.11-.54.22-.81.33l230.67,53.45c0,.3-.05.6-.05.9,0,14.88,10.38,27.3,24.28,30.5l.89,38.33-74.46,46.64c-5.73-7.31-14.63-12.03-24.64-12.03-11.46,0-21.46,6.18-26.92,15.36l-125.97-51.23c.19-1.38.31-2.78.31-4.21,0-12.92-7.83-24.01-19-28.8l13.67-88.44-2.67,1.1-12.18-6.78-14.21,91.76c-12,1.16-21.99,9.11-26.16,19.95l-174.86-31.17c-1.2-16.2-14.7-28.98-31.21-28.98s-31.32,14.02-31.32,31.32,14.02,31.32,31.32,31.32c12.66,0,23.54-7.53,28.48-18.34l175.81,31.34c1.72,12.5,10.79,22.64,22.73,25.9l-1.58,86.71c-11.39,3.04-20.24,12.29-22.61,23.93l-148.44,33.37c-5.25-9.96-15.68-16.75-27.72-16.75-17.3,0-31.32,14.02-31.32,31.32s14.02,31.32,31.32,31.32,30.98-13.71,31.29-30.74l145.69-32.76c1.89,5.96,5.51,11.13,10.28,14.96l-72.34,201.89c-.13,0-.26-.02-.4-.02-17.3,0-31.32,14.02-31.32,31.32s14.02,31.32,31.32,31.32,31.32-14.02,31.32-31.32c0-11.67-6.39-21.82-15.85-27.21l71.51-199.57c1.74.3,3.51.49,5.34.49,9.57,0,18.12-4.3,23.86-11.06l161.93,105.48c-.96,3-1.48,6.2-1.48,9.51,0,17.3,14.02,31.32,31.32,31.32s31.32-14.02,31.32-31.32-14.02-31.32-31.32-31.32c-8.36,0-15.93,3.29-21.55,8.63l-163.37-106.42c.4-1.99.61-4.04.61-6.14,0-14.71-10.16-27.02-23.83-30.38l1.53-86.3c7.28-1.73,13.57-5.99,17.89-11.82l127.48,51.84c0,.31-.05.61-.05.92,0,17.3,14.02,31.32,31.32,31.32s31.32-14.02,31.32-31.32c0-1.65-.17-3.26-.41-4.85l76.02-47.62,157.85,101.5c-1.83,3.98-2.88,8.4-2.88,13.07,0,17.3,14.02,31.32,31.32,31.32s31.32-14.02,31.32-31.32-14.02-31.32-31.32-31.32ZM1654.95,780.88c-9.87,0-17.87-8-17.87-17.87s8-17.87,17.87-17.87,17.87,8,17.87,17.87-8,17.87-17.87,17.87ZM1681.62,1009.69c-9.87,0-17.87-8-17.87-17.87s8-17.87,17.87-17.87,17.87,8,17.87,17.87-8,17.87-17.87,17.87ZM1814.02,1207.8c0,9.87-8,17.87-17.87,17.87s-17.87-8-17.87-17.87,8-17.87,17.87-17.87,17.87,8,17.87,17.87ZM2104.1,1067.57c9.87,0,17.87,8,17.87,17.87s-8,17.87-17.87,17.87-17.87-8-17.87-17.87,8-17.87,17.87-17.87ZM1906.34,950.18c0,9.87-8,17.87-17.87,17.87s-17.87-8-17.87-17.87,8-17.87,17.87-17.87,17.87,8,17.87,17.87ZM1890.24,820.92c-9.87,0-17.87-8-17.87-17.87s8-17.87,17.87-17.87,17.87,8,17.87,17.87-8,17.87-17.87,17.87ZM2074.13,892.32c-9.87,0-17.87-8-17.87-17.87s8-17.87,17.87-17.87,17.87,8,17.87,17.87-8,17.87-17.87,17.87ZM2179.38,757.55c-9.87,0-17.87-8-17.87-17.87s8-17.87,17.87-17.87,17.87,8,17.87,17.87-8,17.87-17.87,17.87ZM2367.36,954.42c-9.87,0-17.87-8-17.87-17.87s8-17.87,17.87-17.87,17.87,8,17.87,17.87-8,17.87-17.87,17.87Z"/>
    </g>
  </g>
</svg>